<?xml version="1.0" encoding="UTF-8"?>
<svg id="Layer_1" xmlns="http://www.w3.org/2000/svg" viewBox="0 0 119.17 66">
  <defs>
    <style>
      .cls-1 {
        fill-rule: evenodd;
      }

      .cls-1, .cls-2 {
        fill: #010101;
      }
    </style>
  </defs>
  <polygon class="cls-1" points="21.74 33.5 16.08 49.5 24.42 49.5 26.75 42.5 32.08 42.5 32.08 33.5 21.74 33.5"/>
  <polygon class="cls-1" points="32.08 16.5 27.75 16.5 22.09 32.5 32.08 32.5 32.08 16.5"/>
  <polygon class="cls-1" points="33.08 42.5 38.42 42.5 40.75 49.5 49.08 49.5 43.43 33.5 33.08 33.5 33.08 42.5"/>
  <polygon class="cls-1" points="43.07 32.5 37.42 16.5 33.08 16.5 33.08 32.5 43.07 32.5"/>
  <g>
    <path class="cls-2" d="M100.33,32.5c-1.02-1.38-2.36-2.5-3.92-3.26,1.81-1.27,3-3.36,3-5.74,0-3.87-3.13-7-7-7h-2.33v16h10.25Z"/>
    <path class="cls-2" d="M90.08,33.5v16h1.67c5.89,0,10.5-4.77,10.5-10.67,0-1.94-.36-3.76-1.27-5.33h-10.9Z"/>
    <rect class="cls-2" x="79.08" y="16.5" width="10" height="16"/>
    <rect class="cls-2" x="79.08" y="33.5" width="10" height="16"/>
  </g>
  <g>
    <path class="cls-2" d="M73.33,32.5c-1.02-1.38-2.36-2.5-3.92-3.26,1.81-1.27,3-3.36,3-5.74,0-3.87-3.13-7-7-7h-2.33v16h10.25Z"/>
    <path class="cls-2" d="M63.08,33.5v16h1.67c5.89,0,10.5-4.77,10.5-10.67,0-1.94-.36-3.76-1.27-5.33h-10.9Z"/>
    <rect class="cls-2" x="52.08" y="16.5" width="10" height="16"/>
    <rect class="cls-2" x="52.08" y="33.5" width="10" height="16"/>
  </g>
</svg>